<svg width="92" height="31" viewBox="0 0 92 31" fill="none" xmlns="http://www.w3.org/2000/svg">
<path fill-rule="evenodd" clip-rule="evenodd" d="M13.5694 30.5L12.6762 30.4407C10.1883 30.2757 7.02434 29.3034 4.46204 26.9446C1.85923 24.5485 0 20.833 0 15.4459C0 8.74299 2.5565 4.90002 5.58438 2.79686C8.51557 0.760866 11.6781 0.5 12.7721 0.5H12.8412L12.9099 0.506568C14.7956 0.686703 16.2591 1.3339 17.127 2.72893C17.7381 3.71106 17.9372 4.90453 17.9949 6.11181C18.4009 6.272 18.9141 6.47457 19.4705 6.69446C20.7767 7.21075 22.3247 7.82395 23.2805 8.20744L22.723 11.0193L12.3436 10.8931L12.5873 9.85443C12.2995 10 11.9742 10.0821 11.6299 10.0821C11.0673 10.0821 10.5557 9.86317 10.1752 9.50568C10.2413 9.93903 10.3771 10.3805 10.6416 10.857C11.1707 11.8104 12.3096 13.064 14.8537 14.5505L15.2332 14.7722L15.4268 15.1676C16.588 17.5386 17.7051 23.4682 14.0242 29.7267L13.5694 30.5ZM16.5622 7.1137C16.5622 4.04119 16.043 2.2706 12.7721 1.95814C10.903 1.95814 1.45374 2.89551 1.45374 15.4459C1.45374 25.4862 8.32437 28.6907 12.7721 28.9858C16.178 23.1949 15.0912 17.7894 14.122 15.8105C8.77433 12.6859 8.61858 10.1341 8.6705 8.25938C8.72241 6.38463 9.91655 5.49933 11.8895 5.49933C13.1465 5.49933 13.9272 7.05187 14.2366 7.99965C14.3157 8.24189 14.364 8.44463 14.3816 8.57184L14.1739 9.45714L21.5308 9.54658L21.5804 9.09828C20.7581 8.77125 19.8054 8.3941 18.9525 8.05699C17.639 7.53787 16.5622 7.1137 16.5622 7.1137Z" fill="#F1F1F8"/>
<path fill-rule="evenodd" clip-rule="evenodd" d="M9.36047 9.96256C9.45469 10.3977 9.61531 10.855 9.88354 11.3383C10.5292 12.5017 11.8289 13.8676 14.4611 15.4055L14.583 15.4768L14.6453 15.6039C15.6762 17.7088 16.7727 23.2828 13.2784 29.224L13.1322 29.4725L12.8451 29.4535C10.5364 29.3003 7.59934 28.3941 5.23293 26.2157C2.85349 24.0252 1.09033 20.5841 1.09033 15.446C1.09033 9.03328 3.51507 5.50994 6.24986 3.61036C8.95357 1.73237 11.8902 1.4895 12.876 1.4895H12.8982L12.9203 1.49161C14.6362 1.65553 15.7495 2.21693 16.394 3.25282C16.9698 4.17819 17.115 5.40451 17.1316 6.81322L17.4207 6.94651L17.4367 6.9539L21.2951 8.67391C21.5948 8.80111 21.8789 8.91914 22.1354 9.02202L21.9618 9.92587H13.6878L14.0089 8.5572C13.9493 8.26101 13.7478 7.62382 13.3987 7.04336C13.0029 6.38509 12.5229 5.96807 11.9934 5.96807C11.0683 5.96807 10.3983 6.17656 9.96053 6.53817C9.53582 6.88899 9.26456 7.43803 9.24146 8.27245C9.23602 8.46864 9.23306 8.66925 9.23816 8.87479C9.28472 9.13248 9.33004 9.49813 9.36047 9.96256Z" fill="black"/>
<path d="M12.3568 7.94684C12.3568 8.3495 12.0314 8.67591 11.6299 8.67591C11.2285 8.67591 10.9031 8.3495 10.9031 7.94684C10.9031 7.54419 11.2285 7.21777 11.6299 7.21777C12.0314 7.21777 12.3568 7.54419 12.3568 7.94684Z" fill="black"/>
<path fill-rule="evenodd" clip-rule="evenodd" d="M14.8815 8.98855L14.9696 8.60552L16.2259 7.43994L19.6997 8.98855H14.8815Z" fill="#F1F1F8"/>
<path fill-rule="evenodd" clip-rule="evenodd" d="M8.65987 17.5762C9.10657 15.5113 9.30641 13.7246 9.37203 12.292C10.1774 13.4918 11.5532 14.7741 13.8654 16.1417C14.7308 18.0358 15.6601 22.9148 12.7623 28.2374C12.4322 27.8709 12.0677 27.4302 11.6949 26.9312C11.681 26.9126 11.6671 26.894 11.6532 26.8752C11.6431 26.8616 11.633 26.8479 11.6228 26.8341C11.0023 25.9933 10.3638 24.9946 9.82762 23.9108C8.82657 21.8873 8.21477 19.6337 8.65987 17.5762Z" fill="#F1F1F8"/>
<path d="M88.6955 16.8535H90.7599V29.3784H88.9289L88.8033 27.9967C88.5519 28.8221 87.4928 29.5937 86.2721 29.5937C83.3281 29.5937 82.0356 27.0457 82.0356 24.9283C82.0356 22.6494 83.364 20.2987 86.2901 20.2987C87.6364 20.2987 88.534 21.0524 88.6955 21.7163V16.8535ZM86.4696 22.2008C84.8719 22.2008 84.1539 23.6902 84.1539 24.9283C84.1539 26.1844 84.6565 27.6737 86.4696 27.6737C87.9595 27.6737 88.7494 26.5612 88.7494 25.1974V24.5156C88.7494 23.0262 87.7262 22.2008 86.4696 22.2008Z" fill="black"/>
<path d="M72.9717 29.3785V20.5142H74.7668L74.9284 22.0932C75.2694 20.9269 76.4363 20.2988 77.6031 20.2988C79.6316 20.2988 80.6907 21.5908 80.6907 23.762V29.3785H78.6263V24.0132C78.6263 22.7571 77.9801 22.2368 77.1364 22.2368C76.1849 22.2368 75.0361 22.8648 75.0361 24.3183V29.3785H72.9717Z" fill="black"/>
<path d="M66.8002 29.5579C65.1487 29.5579 63.7306 28.5351 63.7306 26.8125C63.7306 24.9642 65.3821 24.0491 67.0695 24.0491C67.8594 24.0491 68.6133 24.2465 69.1519 24.6233V23.6185C69.1519 22.3983 68.4338 21.9676 67.5003 21.9676C66.4951 21.9676 65.9027 22.6136 65.9027 23.5108H63.9999C63.8922 22.0214 64.8615 20.2988 67.6081 20.2988C69.6365 20.2988 71.1444 21.3934 71.1444 23.8158V27.3328C71.1444 27.5841 71.2881 27.925 71.8984 27.9071V29.4323L71.4317 29.4861C70.2289 29.5579 69.1878 28.8401 69.2416 27.9968C68.7928 29.1631 67.7517 29.5579 66.8002 29.5579ZM67.0516 27.8532C67.7696 27.8712 69.1339 27.5302 69.1339 26.1665C68.6851 25.8076 67.9671 25.6102 67.2131 25.6102C66.4053 25.6102 65.6334 26.0229 65.6334 26.7766C65.6334 27.602 66.4053 27.8353 67.0516 27.8532Z" fill="black"/>
<path d="M62.3959 16.8535V29.3784H60.3315V16.8535H62.3959Z" fill="black"/>
<path d="M53.7267 16.8535V24.2464L56.8503 20.5141H59.2737L56.1681 24.3361L59.6686 29.3784H57.2452L54.8397 25.7716L53.7267 27.0995V29.3784H51.6624V16.8535H53.7267Z" fill="black"/>
<path d="M49.8609 16.8535V29.3784H47.7965V16.8535H49.8609Z" fill="black"/>
<path d="M41.6251 29.5579C39.9736 29.5579 38.5554 28.5351 38.5554 26.8125C38.5554 24.9642 40.2069 24.0491 41.8943 24.0491C42.6842 24.0491 43.4382 24.2465 43.9767 24.6233V23.6185C43.9767 22.3983 43.2586 21.9676 42.3252 21.9676C41.3199 21.9676 40.7275 22.6136 40.7275 23.5108H38.8247C38.717 22.0214 39.6863 20.2988 42.4329 20.2988C44.4614 20.2988 45.9693 21.3934 45.9693 23.8158V27.3328C45.9693 27.5841 46.1129 27.925 46.7232 27.9071V29.4323L46.2565 29.4861C45.0538 29.5579 44.0126 28.8401 44.0664 27.9968C43.6177 29.1631 42.5765 29.5579 41.6251 29.5579ZM41.8764 27.8532C42.5944 27.8712 43.9587 27.5302 43.9587 26.1665C43.51 25.8076 42.7919 25.6102 42.038 25.6102C41.2302 25.6102 40.4582 26.0229 40.4582 26.7766C40.4582 27.602 41.2302 27.8353 41.8764 27.8532Z" fill="black"/>
<path d="M37.8479 17.4458V19.4017H32.3189V22.5778H37.435V24.4978H32.3189V29.3785H30.1469V17.4458H37.8479Z" fill="black"/>
<path d="M73.885 13.6304C71.1744 13.6304 69.3254 11.4951 69.3254 8.94704C69.3254 6.38105 71.2103 4.26367 73.8671 4.26367C76.5777 4.26367 78.4267 6.38105 78.4267 8.94704C78.4267 11.4951 76.5777 13.6304 73.885 13.6304ZM73.885 11.7463C75.5545 11.7463 76.3085 10.3467 76.3085 8.98292C76.3085 7.5833 75.5007 6.12984 73.885 6.12984C72.2515 6.12984 71.4437 7.5833 71.4437 8.98292C71.4437 10.3646 72.1976 11.7463 73.885 11.7463Z" fill="black"/>
<path d="M68.0445 0.872314V3.15119H65.657V0.872314H68.0445ZM67.8829 4.53288V13.3972H65.8185V4.53288H67.8829Z" fill="black"/>
<path d="M61.9602 0.872314H64.0246V13.3972H62.1936L62.0679 12.0155C61.8166 12.8409 60.7575 13.6125 59.5368 13.6125C56.5928 13.6125 55.3003 11.0645 55.3003 8.94708C55.3003 6.6682 56.6287 4.31755 59.5547 4.31755C60.9011 4.31755 61.7986 5.07119 61.9602 5.73512V0.872314ZM59.7342 6.2196C58.1366 6.2196 57.4185 7.70895 57.4185 8.94708C57.4185 10.2032 57.9212 11.6925 59.7342 11.6925C61.2242 11.6925 62.0141 10.58 62.0141 9.21624V8.53437C62.0141 7.04503 60.9908 6.2196 59.7342 6.2196Z" fill="black"/>
<path d="M53.8605 4.53296V13.3973H52.0834L51.9039 12.0694C51.4371 13.0204 50.4678 13.6126 49.3727 13.6126C47.6135 13.6126 46.3569 12.4642 46.3569 10.293V4.53296H48.4034V9.98791C48.4034 11.244 49.1394 11.7105 49.8754 11.7105C50.755 11.7105 51.8141 11.0287 51.8141 9.64698V4.53296H53.8605Z" fill="black"/>
<path d="M44.8564 11.6565C45.0898 11.6565 45.3052 11.6386 45.5386 11.6206V13.3791C45.1796 13.433 44.8205 13.4509 44.4615 13.4509C42.4151 13.4509 41.1405 12.5537 41.1405 10.5261V6.30924H39.7942V5.14288C41.5355 4.38924 41.6432 2.50512 41.6432 2.39746H43.5998C43.6537 3.61765 43.2947 4.15597 42.8818 4.53279H45.4309V6.30924H43.169V10.3107C43.169 11.3515 43.6178 11.6565 44.8564 11.6565Z" fill="black"/>
<path d="M34.6167 13.5408C31.2419 13.5587 29.6622 11.6746 29.7878 9.50339H31.9061C31.8702 11.0645 32.9113 11.7823 34.4731 11.7823C36.0169 11.7823 36.6093 10.9389 36.6093 10.0776C36.6093 8.71386 34.9578 8.55236 33.6294 8.21143C31.547 7.67311 30.093 6.77591 30.093 4.71236C30.093 2.81031 31.8522 1.30302 34.4551 1.32096C37.2555 1.3389 38.925 3.31274 38.8891 5.39423H36.8606C36.8247 4.26376 36.0169 3.11535 34.3295 3.11535C32.9113 3.11535 32.1574 3.72545 32.1753 4.69442C32.1933 6.12993 34.491 6.3632 35.7117 6.70414C36.9504 7.04507 38.7634 7.78077 38.7634 10.0955C38.7634 12.0155 37.2196 13.5228 34.6167 13.5408Z" fill="black"/>
</svg>
