<svg width="347" height="24" viewBox="0 0 347 24" fill="none" xmlns="http://www.w3.org/2000/svg">
                <path d="M0 12.9844C0 6.75 8.25 0 8.25 0C8.25 0 11.25 2.8125 12.375 4.21875C12.8906 3.51562 14.625 2.20312 14.625 2.20312C14.625 2.20312 21 7.5 21 12.9844C21 18.9844 16.3125 24 10.5 24C4.59375 24 0 18.9844 0 12.9844ZM10.5469 19.5C11.7656 19.5 12.7969 19.1719 13.7812 18.5156C15.75 17.1562 16.2656 14.3906 15.0938 12.2344C14.9531 11.9531 14.8594 11.7188 14.625 11.4375L12.2812 14.2031C12.2812 14.2031 8.4375 9.32812 8.20312 9C6.23438 11.4375 5.25 12.8438 5.25 14.3906C5.25 17.625 7.59375 19.5 10.5469 19.5Z" fill="#0000FF"/>
                <path d="M33.68 19V16.12L40.16 8.64C40.4667 8.29333 40.7733 7.94 41.08 7.58C41.4 7.22 41.74 6.86667 42.1 6.52V6.04H34.36V3.4H46.3V6.28L39.8 13.76C39.5067 14.1067 39.2 14.46 38.88 14.82C38.56 15.18 38.22 15.5333 37.86 15.88V16.36H46.48V19H33.68ZM48.6831 19V7H51.9231V19H48.6831ZM50.3031 5.62C49.7298 5.62 49.2965 5.47333 49.0031 5.18C48.7098 4.87333 48.5631 4.48 48.5631 4C48.5631 3.52 48.7098 3.13333 49.0031 2.84C49.2965 2.53333 49.7298 2.38 50.3031 2.38C50.8765 2.38 51.3098 2.53333 51.6031 2.84C51.8965 3.13333 52.0431 3.52 52.0431 4C52.0431 4.48 51.8965 4.87333 51.6031 5.18C51.3098 5.47333 50.8765 5.62 50.3031 5.62ZM53.6541 23V22.88C54.0541 22.4267 54.3607 21.9 54.5741 21.3C54.7874 20.7 54.8941 19.96 54.8941 19.08V7H58.1341V19.42C58.1341 20.3667 58.0274 21.1 57.8141 21.62C57.6007 22.14 57.3274 22.6 56.9941 23H53.6541ZM56.5141 5.62C55.9407 5.62 55.5074 5.47333 55.2141 5.18C54.9207 4.87333 54.7741 4.48 54.7741 4C54.7741 3.52 54.9207 3.13333 55.2141 2.84C55.5074 2.53333 55.9407 2.38 56.5141 2.38C57.0874 2.38 57.5207 2.53333 57.8141 2.84C58.1074 3.13333 58.2541 3.52 58.2541 4C58.2541 4.48 58.1074 4.87333 57.8141 5.18C57.5207 5.47333 57.0874 5.62 56.5141 5.62ZM61.105 19V7H64.105V8.8H64.585C64.825 8.2 65.1917 7.7 65.685 7.3C66.1917 6.9 66.9317 6.7 67.905 6.7C69.2383 6.7 70.2383 7.12 70.905 7.96C71.5717 8.8 71.905 9.94 71.905 11.38V19H68.665V11.92C68.665 11.0933 68.5183 10.46 68.225 10.02C67.9317 9.56667 67.4517 9.34 66.785 9.34C66.0117 9.34 65.4117 9.64667 64.985 10.26C64.5583 10.86 64.345 11.6133 64.345 12.52V19H61.105ZM80.6034 19L78.7834 7.02V7H81.7834L83.2034 16.6H83.6834L85.3434 7H90.5034L92.1634 16.6H92.6434L94.0634 7H96.8634V7.02L95.0434 19H89.7634L88.0634 9.34H87.5834L85.8834 19H80.6034ZM104.117 19.3C102.224 19.3 100.777 18.7333 99.7772 17.6C98.7905 16.4667 98.2972 14.9267 98.2972 12.98C98.2972 11.6733 98.5172 10.5533 98.9572 9.62C99.4105 8.68667 100.064 7.96667 100.917 7.46C101.784 6.95333 102.837 6.7 104.077 6.7C105.864 6.7 107.231 7.24 108.177 8.32C109.137 9.4 109.617 10.9867 109.617 13.08V13.76H101.457C101.524 14.7733 101.784 15.5733 102.237 16.16C102.704 16.7333 103.331 17.02 104.117 17.02C104.744 17.02 105.244 16.8333 105.617 16.46C106.004 16.0867 106.257 15.6533 106.377 15.16H109.457C109.337 15.8933 109.071 16.5733 108.657 17.2C108.244 17.8267 107.664 18.3333 106.917 18.72C106.171 19.1067 105.237 19.3 104.117 19.3ZM101.457 11.72H106.457C106.404 10.8133 106.177 10.1133 105.777 9.62C105.377 9.11333 104.804 8.86 104.057 8.86C103.324 8.86 102.731 9.1 102.277 9.58C101.837 10.0467 101.564 10.76 101.457 11.72ZM120.591 19.24C119.471 19.24 118.551 18.9733 117.831 18.44C117.111 17.8933 116.578 17.1467 116.231 16.2C115.885 15.2533 115.711 14.18 115.711 12.98C115.711 11.74 115.885 10.6533 116.231 9.72C116.591 8.78667 117.131 8.06 117.851 7.54C118.571 7.02 119.478 6.76 120.571 6.76C121.411 6.76 122.098 6.92667 122.631 7.26C123.178 7.58 123.591 8.01333 123.871 8.56H124.351V7H127.351V19H124.351V17.44H123.871C123.591 17.9467 123.185 18.3733 122.651 18.72C122.118 19.0667 121.431 19.24 120.591 19.24ZM121.431 16.96C122.245 16.96 122.891 16.6067 123.371 15.9C123.865 15.18 124.111 14.2133 124.111 13C124.111 11.7733 123.865 10.8067 123.371 10.1C122.891 9.39333 122.245 9.04 121.431 9.04C120.698 9.04 120.118 9.37333 119.691 10.04C119.278 10.6933 119.071 11.68 119.071 13C119.071 14.32 119.278 15.3133 119.691 15.98C120.118 16.6333 120.698 16.96 121.431 16.96ZM131.296 19C130.923 18.5733 130.656 18.0933 130.496 17.56C130.349 17.0133 130.276 16.3 130.276 15.42V3H133.516V15.08C133.516 16.0933 133.629 16.8867 133.856 17.46C134.083 18.02 134.383 18.4933 134.756 18.88V19H131.296ZM145.402 19.24C144.309 19.24 143.409 18.9733 142.702 18.44C141.995 17.8933 141.469 17.1467 141.122 16.2C140.775 15.2533 140.602 14.18 140.602 12.98C140.602 11.74 140.775 10.6533 141.122 9.72C141.482 8.78667 142.015 8.06 142.722 7.54C143.442 7.02 144.335 6.76 145.402 6.76C146.189 6.76 146.829 6.9 147.322 7.18C147.829 7.46 148.229 7.84 148.522 8.32H149.002V3H152.242V19H149.242V17.44H148.762C148.482 17.9467 148.075 18.3733 147.542 18.72C147.009 19.0667 146.295 19.24 145.402 19.24ZM146.322 16.96C147.135 16.96 147.782 16.6067 148.262 15.9C148.755 15.18 149.002 14.2133 149.002 13C149.002 11.7733 148.755 10.8067 148.262 10.1C147.782 9.39333 147.135 9.04 146.322 9.04C145.589 9.04 145.009 9.37333 144.582 10.04C144.169 10.6933 143.962 11.68 143.962 13C143.962 14.32 144.169 15.3133 144.582 15.98C145.009 16.6333 145.589 16.96 146.322 16.96ZM155.207 19V7H158.447V19H155.207ZM156.827 5.62C156.253 5.62 155.82 5.47333 155.527 5.18C155.233 4.87333 155.087 4.48 155.087 4C155.087 3.52 155.233 3.13333 155.527 2.84C155.82 2.53333 156.253 2.38 156.827 2.38C157.4 2.38 157.833 2.53333 158.127 2.84C158.42 3.13333 158.567 3.52 158.567 4C158.567 4.48 158.42 4.87333 158.127 5.18C157.833 5.47333 157.4 5.62 156.827 5.62ZM166.498 23.3C165.378 23.3 164.471 23.16 163.777 22.88C163.097 22.6133 162.571 22.2733 162.197 21.86C161.837 21.4467 161.584 21.0267 161.438 20.6C161.291 20.1733 161.204 19.8 161.178 19.48H164.338C164.404 19.8667 164.591 20.22 164.898 20.54C165.204 20.86 165.724 21.02 166.458 21.02C167.284 21.02 167.904 20.7733 168.317 20.28C168.731 19.8 168.938 19.1133 168.938 18.22V16.8H168.458C168.271 17.3733 167.924 17.8267 167.418 18.16C166.911 18.48 166.244 18.64 165.418 18.64C163.858 18.64 162.664 18.1 161.837 17.02C161.024 15.9267 160.618 14.4733 160.618 12.66C160.618 11.5 160.798 10.4733 161.157 9.58C161.518 8.67333 162.058 7.96667 162.778 7.46C163.498 6.95333 164.398 6.7 165.478 6.7C166.304 6.7 166.964 6.86 167.457 7.18C167.964 7.48667 168.338 7.90667 168.578 8.44H169.057V7H172.057V18.1C172.057 19.7533 171.604 21.0333 170.698 21.94C169.791 22.8467 168.391 23.3 166.498 23.3ZM166.298 16.36C167.084 16.36 167.697 16.0267 168.138 15.36C168.591 14.6933 168.818 13.7933 168.818 12.66C168.818 11.5267 168.591 10.6333 168.138 9.98C167.697 9.31333 167.084 8.98 166.298 8.98C165.564 8.98 164.978 9.28667 164.538 9.9C164.111 10.5133 163.898 11.4333 163.898 12.66C163.898 13.9133 164.111 14.8467 164.538 15.46C164.978 16.06 165.564 16.36 166.298 16.36ZM175.011 19V7H178.251V19H175.011ZM176.631 5.62C176.058 5.62 175.625 5.47333 175.331 5.18C175.038 4.87333 174.891 4.48 174.891 4C174.891 3.52 175.038 3.13333 175.331 2.84C175.625 2.53333 176.058 2.38 176.631 2.38C177.205 2.38 177.638 2.53333 177.931 2.84C178.225 3.13333 178.371 3.52 178.371 4C178.371 4.48 178.225 4.87333 177.931 5.18C177.638 5.47333 177.205 5.62 176.631 5.62ZM182.982 19C182.676 18.64 182.429 18.2067 182.242 17.7C182.069 17.1933 181.982 16.4333 181.982 15.42V9.28H180.342V7H182.022V4H185.202V7H187.142V9.28H185.202V15.08C185.202 16.1333 185.322 16.94 185.562 17.5C185.802 18.06 186.089 18.52 186.422 18.88V19H182.982ZM193.294 19.24C192.174 19.24 191.254 18.9733 190.534 18.44C189.814 17.8933 189.281 17.1467 188.934 16.2C188.588 15.2533 188.414 14.18 188.414 12.98C188.414 11.74 188.588 10.6533 188.934 9.72C189.294 8.78667 189.834 8.06 190.554 7.54C191.274 7.02 192.181 6.76 193.274 6.76C194.114 6.76 194.801 6.92667 195.334 7.26C195.881 7.58 196.294 8.01333 196.574 8.56H197.054V7H200.054V19H197.054V17.44H196.574C196.294 17.9467 195.888 18.3733 195.354 18.72C194.821 19.0667 194.134 19.24 193.294 19.24ZM194.134 16.96C194.948 16.96 195.594 16.6067 196.074 15.9C196.568 15.18 196.814 14.2133 196.814 13C196.814 11.7733 196.568 10.8067 196.074 10.1C195.594 9.39333 194.948 9.04 194.134 9.04C193.401 9.04 192.821 9.37333 192.394 10.04C191.981 10.6933 191.774 11.68 191.774 13C191.774 14.32 191.981 15.3133 192.394 15.98C192.821 16.6333 193.401 16.96 194.134 16.96ZM207.099 19.24C205.979 19.24 205.059 18.9733 204.339 18.44C203.619 17.8933 203.086 17.1467 202.739 16.2C202.392 15.2533 202.219 14.18 202.219 12.98C202.219 11.74 202.392 10.6533 202.739 9.72C203.099 8.78667 203.639 8.06 204.359 7.54C205.079 7.02 205.986 6.76 207.079 6.76C207.919 6.76 208.606 6.92667 209.139 7.26C209.686 7.58 210.099 8.01333 210.379 8.56H210.859V7H213.859V19H210.859V17.44H210.379C210.099 17.9467 209.692 18.3733 209.159 18.72C208.626 19.0667 207.939 19.24 207.099 19.24ZM207.939 16.96C208.752 16.96 209.399 16.6067 209.879 15.9C210.372 15.18 210.619 14.2133 210.619 13C210.619 11.7733 210.372 10.8067 209.879 10.1C209.399 9.39333 208.752 9.04 207.939 9.04C207.206 9.04 206.626 9.37333 206.199 10.04C205.786 10.6933 205.579 11.68 205.579 13C205.579 14.32 205.786 15.3133 206.199 15.98C206.626 16.6333 207.206 16.96 207.939 16.96ZM217.804 19C217.43 18.5733 217.164 18.0933 217.004 17.56C216.857 17.0133 216.784 16.3 216.784 15.42V3H220.024V15.08C220.024 16.0933 220.137 16.8867 220.364 17.46C220.59 18.02 220.89 18.4933 221.264 18.88V19H217.804ZM231.99 19.24C230.87 19.24 229.95 18.9733 229.23 18.44C228.51 17.8933 227.976 17.1467 227.63 16.2C227.283 15.2533 227.11 14.18 227.11 12.98C227.11 11.74 227.283 10.6533 227.63 9.72C227.99 8.78667 228.53 8.06 229.25 7.54C229.97 7.02 230.876 6.76 231.97 6.76C232.81 6.76 233.496 6.92667 234.03 7.26C234.576 7.58 234.99 8.01333 235.27 8.56H235.75V7H238.75V19H235.75V17.44H235.27C234.99 17.9467 234.583 18.3733 234.05 18.72C233.516 19.0667 232.83 19.24 231.99 19.24ZM232.83 16.96C233.643 16.96 234.29 16.6067 234.77 15.9C235.263 15.18 235.51 14.2133 235.51 13C235.51 11.7733 235.263 10.8067 234.77 10.1C234.29 9.39333 233.643 9.04 232.83 9.04C232.096 9.04 231.516 9.37333 231.09 10.04C230.676 10.6933 230.47 11.68 230.47 13C230.47 14.32 230.676 15.3133 231.09 15.98C231.516 16.6333 232.096 16.96 232.83 16.96ZM245.594 19.3C244.261 19.3 243.254 18.88 242.574 18.04C241.894 17.2 241.554 16.06 241.554 14.62V7H244.794V14.08C244.794 14.8933 244.941 15.5267 245.234 15.98C245.528 16.4333 246.001 16.66 246.654 16.66C247.441 16.66 248.048 16.3533 248.474 15.74C248.901 15.1267 249.114 14.3733 249.114 13.48V7H252.354V19H249.434V17.2H248.954C248.754 17.8 248.388 18.3 247.854 18.7C247.321 19.1 246.568 19.3 245.594 19.3ZM257.068 19C256.761 18.64 256.515 18.2067 256.328 17.7C256.155 17.1933 256.068 16.4333 256.068 15.42V9.28H254.428V7H256.108V4H259.288V7H261.228V9.28H259.288V15.08C259.288 16.1333 259.408 16.94 259.648 17.5C259.888 18.06 260.175 18.52 260.508 18.88V19H257.068ZM268.42 19.3C266.434 19.3 264.947 18.7333 263.96 17.6C262.987 16.4533 262.5 14.92 262.5 13C262.5 11.08 262.987 9.55333 263.96 8.42C264.947 7.27333 266.434 6.7 268.42 6.7C270.407 6.7 271.887 7.27333 272.86 8.42C273.847 9.55333 274.34 11.08 274.34 13C274.34 14.92 273.847 16.4533 272.86 17.6C271.887 18.7333 270.407 19.3 268.42 19.3ZM268.42 17.14C269.3 17.14 269.947 16.7933 270.36 16.1C270.774 15.4067 270.98 14.3667 270.98 12.98C270.98 11.6067 270.774 10.58 270.36 9.9C269.947 9.20667 269.3 8.86 268.42 8.86C267.54 8.86 266.894 9.20667 266.48 9.9C266.067 10.58 265.86 11.6067 265.86 12.98C265.86 14.3667 266.067 15.4067 266.48 16.1C266.894 16.7933 267.54 17.14 268.42 17.14ZM276.496 19V7H279.496V8.8H279.976C280.216 8.2 280.582 7.7 281.076 7.3C281.582 6.9 282.322 6.7 283.296 6.7C284.629 6.7 285.629 7.12 286.296 7.96C286.962 8.8 287.296 9.94 287.296 11.38V19H284.056V11.92C284.056 11.0933 283.909 10.46 283.616 10.02C283.322 9.56667 282.842 9.34 282.176 9.34C281.402 9.34 280.802 9.64667 280.376 10.26C279.949 10.86 279.736 11.6133 279.736 12.52V19H276.496ZM295.209 19.3C293.223 19.3 291.736 18.7333 290.749 17.6C289.776 16.4533 289.289 14.92 289.289 13C289.289 11.08 289.776 9.55333 290.749 8.42C291.736 7.27333 293.223 6.7 295.209 6.7C297.196 6.7 298.676 7.27333 299.649 8.42C300.636 9.55333 301.129 11.08 301.129 13C301.129 14.92 300.636 16.4533 299.649 17.6C298.676 18.7333 297.196 19.3 295.209 19.3ZM295.209 17.14C296.089 17.14 296.736 16.7933 297.149 16.1C297.563 15.4067 297.769 14.3667 297.769 12.98C297.769 11.6067 297.563 10.58 297.149 9.9C296.736 9.20667 296.089 8.86 295.209 8.86C294.329 8.86 293.683 9.20667 293.269 9.9C292.856 10.58 292.649 11.6067 292.649 12.98C292.649 14.3667 292.856 15.4067 293.269 16.1C293.683 16.7933 294.329 17.14 295.209 17.14ZM308.405 19.3C306.418 19.3 304.931 18.7333 303.945 17.6C302.971 16.4533 302.485 14.92 302.485 13C302.485 11.08 302.971 9.55333 303.945 8.42C304.931 7.27333 306.418 6.7 308.405 6.7C310.391 6.7 311.871 7.27333 312.845 8.42C313.831 9.55333 314.325 11.08 314.325 13C314.325 14.92 313.831 16.4533 312.845 17.6C311.871 18.7333 310.391 19.3 308.405 19.3ZM308.405 17.14C309.285 17.14 309.931 16.7933 310.345 16.1C310.758 15.4067 310.965 14.3667 310.965 12.98C310.965 11.6067 310.758 10.58 310.345 9.9C309.931 9.20667 309.285 8.86 308.405 8.86C307.525 8.86 306.878 9.20667 306.465 9.9C306.051 10.58 305.845 11.6067 305.845 12.98C305.845 14.3667 306.051 15.4067 306.465 16.1C306.878 16.7933 307.525 17.14 308.405 17.14ZM316.48 19V7H319.48V8.8H319.96C320.187 8.22667 320.547 7.73333 321.04 7.32C321.533 6.90667 322.247 6.7 323.18 6.7C324.007 6.7 324.693 6.88667 325.24 7.26C325.8 7.62 326.227 8.13333 326.52 8.8H327C327.24 8.2 327.613 7.7 328.12 7.3C328.627 6.9 329.327 6.7 330.22 6.7C331.513 6.7 332.48 7.12 333.12 7.96C333.76 8.8 334.08 9.94 334.08 11.38V19H330.84V11.92C330.84 11.1067 330.707 10.4733 330.44 10.02C330.173 9.56667 329.74 9.34 329.14 9.34C328.407 9.34 327.847 9.64667 327.46 10.26C327.087 10.8733 326.9 11.6267 326.9 12.52V19H323.66V11.92C323.66 11.1067 323.527 10.4733 323.26 10.02C322.993 9.56667 322.56 9.34 321.96 9.34C321.24 9.34 320.687 9.64667 320.3 10.26C319.913 10.8733 319.72 11.6267 319.72 12.52V19H316.48ZM339.551 14.2V10.82C340.271 10.66 340.917 10.4533 341.491 10.2C342.077 9.94667 342.537 9.62 342.871 9.22C343.204 8.82 343.371 8.31333 343.371 7.7C343.371 7.11333 343.191 6.61333 342.831 6.2C342.471 5.77333 341.924 5.56 341.191 5.56C340.671 5.56 340.244 5.66667 339.911 5.88C339.577 6.09333 339.324 6.38 339.151 6.74C338.991 7.08667 338.897 7.48 338.871 7.92H335.871C335.897 7.04 336.104 6.24 336.491 5.52C336.891 4.8 337.484 4.22667 338.271 3.8C339.057 3.37333 340.057 3.16 341.271 3.16C342.831 3.16 344.084 3.56667 345.031 4.38C345.991 5.18 346.471 6.28667 346.471 7.7C346.471 8.95333 346.097 9.97333 345.351 10.76C344.617 11.5467 343.644 12.1467 342.431 12.56V14.2H339.551ZM340.991 19.12C340.417 19.12 339.971 18.9533 339.651 18.62C339.344 18.2867 339.191 17.8533 339.191 17.32C339.191 16.7733 339.344 16.34 339.651 16.02C339.971 15.6867 340.417 15.52 340.991 15.52C341.577 15.52 342.024 15.6867 342.331 16.02C342.637 16.34 342.791 16.7733 342.791 17.32C342.791 17.8533 342.637 18.2867 342.331 18.62C342.024 18.9533 341.577 19.12 340.991 19.12Z" fill="#0000FF"/>
                </svg>   