<svg width="75" height="37" viewBox="0 0 75 37" fill="none" xmlns="http://www.w3.org/2000/svg">
<path d="M50.5715 13.5544H52.1174V19.4541H54.6901V20.7172H50.5722L50.5715 13.5544Z" fill="black"/>
<path d="M57.8364 13.5544H59.5625L62.1345 20.7172H60.4541L60.0029 19.2924H57.2627L56.7881 20.7172H55.1978L57.8364 13.5544ZM59.5961 18.028L59.0098 16.1874C58.874 15.7618 58.7388 15.3485 58.6595 15.0155H58.6373C58.5465 15.3375 58.412 15.7748 58.2762 16.1874L57.667 18.028H59.5961Z" fill="black"/>
<path d="M63.1506 13.5544H65.8236C67.346 13.5544 68.1697 14.2911 68.1697 15.3828C68.1697 16.2682 67.6398 16.8089 67.0642 16.9693V16.9919C67.8194 17.1653 68.3835 17.706 68.3835 18.6366C68.3835 19.9463 67.4132 20.7166 65.8902 20.7166H63.1506V13.5544ZM65.6205 16.4758C66.3198 16.4758 66.6124 16.1537 66.6124 15.6014C66.6124 15.1067 66.3078 14.7852 65.6306 14.7852H64.694V16.4752L65.6205 16.4758ZM65.6535 19.4878C66.342 19.4878 66.7145 19.165 66.7145 18.5325C66.7145 17.889 66.3642 17.5553 65.6655 17.5553H64.6952V19.4878H65.6535Z" fill="black"/>
<path d="M69.4443 20.406V19.0382C69.952 19.2794 70.6056 19.5206 71.2828 19.5206C72.0608 19.5206 72.4561 19.2464 72.4561 18.7167C72.4561 18.0958 71.9256 18.0279 70.8658 17.5552C70.143 17.2227 69.4551 16.7053 69.4551 15.5088C69.4551 14.1183 70.4813 13.4631 71.9028 13.4631C72.6586 13.4631 73.3014 13.6462 73.6625 13.7852V15.1188C73.3014 14.9455 72.6586 14.7385 72.0151 14.7385C71.3158 14.7385 70.9889 15.0037 70.9889 15.4635C70.9889 15.946 71.3837 16.0954 72.0944 16.3716C73.0076 16.8431 74.0674 17.05 74.0674 18.6592C74.0674 20.0497 72.9962 20.809 71.5639 20.809C70.685 20.809 69.9856 20.6486 69.4443 20.406Z" fill="black"/>
<path d="M32.5586 13.9636V12.4218V11.8752H34.3196H35.4923H35.9594H36.0241L36.8954 13.2988L39.7365 17.9386C39.7378 17.9424 39.7403 17.9463 39.7429 17.9496L40.0995 18.5336C40.2969 18.8647 40.5038 19.2334 40.6948 19.593C40.9118 20.0011 41.1098 20.3975 41.2551 20.717C41.2145 20.1168 41.2342 19.1972 41.2342 18.6403V16.9536V11.8759H41.3135H41.4315H41.6682H42.7617H44.1337V16.0061V16.2686V18.1442V18.9566V24.681V25.2113H42.6798H40.8997H40.625L39.4167 23.2316L39.081 22.6819L37.8765 20.706L36.5502 18.5323C36.1955 17.9625 35.7843 17.2659 35.5031 16.6955C35.4682 16.6231 35.4263 16.5448 35.3952 16.4769C35.3978 16.5248 35.3978 16.5765 35.4016 16.6257C35.4238 17.1954 35.4574 17.8532 35.4574 18.4243V20.7015V25.21H32.5599V20.7002V14.7242V14.1195V13.9636H32.5586Z" fill="white"/>
<path d="M15.606 11.876H12.3308V25.2114H15.606V11.876Z" fill="white"/>
<path d="M23.5884 11.8752H18.8201V20.7067V25.2113H23.5256C27.3567 25.2113 29.2332 23.1359 29.8843 20.7002C30.0728 19.9978 30.1629 19.2554 30.1629 18.5329C30.1622 15.087 28.3987 11.8752 23.5884 11.8752ZM26.4022 20.7015C25.9656 21.7777 25.0353 22.471 23.2102 22.471H22.0971V20.7041V14.5729H23.3365C26.0868 14.5729 26.7405 16.2648 26.7405 18.5336C26.7405 19.3453 26.6485 20.0916 26.4022 20.7015Z" fill="white"/>
<path d="M6.0082 17.0022C4.79041 16.5533 4.07649 16.2746 4.07649 15.5043C4.07649 14.798 4.62224 14.3906 5.81973 14.3906C7.03752 14.3906 8.25658 14.798 8.92862 15.1188V12.2925C8.19312 12.015 7.01721 11.6936 5.56779 11.6936C2.83712 11.6936 0.841309 12.9347 0.841309 15.633C0.841309 17.8585 2.08068 18.8862 3.40381 19.4637C5.42057 20.3633 6.3236 20.3847 6.3236 21.4117C6.3236 22.1833 5.71439 22.6535 4.32779 22.6535C3.02496 22.6535 1.82811 22.1833 0.861615 21.7125V24.6028C1.91187 25.0743 3.2147 25.3731 4.91606 25.3731C7.64674 25.3731 9.74789 23.9813 9.74789 21.263C9.74725 18.5227 8.00401 17.7311 6.0082 17.0022Z" fill="black"/>
<path d="M47.775 15.6821C47.7452 14.9946 47.7115 14.4694 47.6512 13.8033C47.5497 12.6941 47.4006 11.6341 47.1912 10.6316C47.1493 10.4305 47.1639 10.4984 47.1195 10.2998C46.5813 7.91976 45.7881 6.13019 44.4199 4.61938C43.8519 3.99073 43.2053 3.44875 42.4679 2.97791C42.3219 2.88349 42.1207 2.76254 41.9659 2.67523C41.8123 2.58727 41.8656 2.61573 41.707 2.53101C41.3909 2.3622 40.9524 2.15395 40.6066 2.00972C39.9174 1.71998 39.2454 1.49361 38.4674 1.28083C36.5064 0.745964 34.7004 0.487262 32.4127 0.321693C30.8173 0.205924 29.4281 0.173586 27.8366 0.216919C27.6088 0.224033 27.3086 0.233734 27.0827 0.244082C26.6327 0.264132 26.4106 0.277067 25.9683 0.310052C25.0831 0.375374 24.2987 0.461392 23.4693 0.591389C22.0218 0.8184 20.8725 1.0978 19.6661 1.56152C18.8056 1.89266 18.0251 2.29365 17.3207 2.77871C17.1798 2.87573 17.2267 2.84339 17.0897 2.94299C16.8136 3.14413 16.4684 3.43194 16.2228 3.66283C14.3241 5.422 12.9438 8.41389 12.3308 11.8747H15.606V20.7093V25.2101H12.3308C13.0758 30.2386 15.0272 33.6658 19.6877 35.2387C21.3104 35.8427 23.065 36.2204 25.0583 36.4779C30.394 37.1194 35.5279 37.0567 39.7448 35.5685C42.0293 34.7387 43.468 33.7039 44.7657 31.8497C45.4587 30.8543 46.0483 29.5757 46.4703 28.2511C47.6601 24.4508 47.9552 20.3038 47.775 15.6821ZM18.8202 25.2114V20.7067V11.8753H23.5886C28.3988 11.8753 30.1624 15.0871 30.1624 18.533C30.1624 19.2554 30.0716 19.9979 29.8838 20.7003C29.2333 23.136 27.3568 25.2114 23.5251 25.2114H18.8202ZM44.1324 25.2114H42.6785H40.8985H40.625L39.4167 23.2317L39.081 22.6819L37.8765 20.7061L36.5502 18.5324C36.1955 17.9626 35.7843 17.266 35.5031 16.6956C35.4682 16.6231 35.4264 16.5449 35.3953 16.477C35.3978 16.5248 35.3978 16.5766 35.4016 16.6257C35.4238 17.1955 35.4575 17.8533 35.4575 18.4244V20.7016V25.2101H32.5599V20.7003V14.7243V14.1196V12.4205V11.874H34.3209H35.4936H35.9607H35.9683H36.0254L36.8993 13.3014H36.9005L39.7365 17.9367C39.7391 17.9399 39.7416 17.9438 39.7442 17.9477L40.1008 18.5317C40.2982 18.8629 40.5038 19.2315 40.6948 19.5911H40.6961C40.9131 19.9992 41.1111 20.3957 41.2564 20.7152C41.2158 20.115 41.2355 19.1953 41.2355 18.6384V16.9517V11.874H41.3148H41.4328H41.6695H42.7629H44.1349V16.0042V16.2668V18.1424V18.9547V24.6791V25.2114H44.1324Z" fill="black"/>
<path d="M26.4023 20.7016C26.6491 20.0917 26.7405 19.3447 26.7405 18.533C26.7405 16.2642 26.0875 14.5723 23.3365 14.5723H22.0972V20.7035V22.4704H23.2103C25.0347 22.4717 25.9657 21.7778 26.4023 20.7016Z" fill="black"/>
</svg>
