<svg width="134" height="25" viewBox="0 0 134 25" fill="none" xmlns="http://www.w3.org/2000/svg">
<g clip-path="url(#clip0_88_10330)">
<path d="M86.3873 21.9648H73.7346V24.9601H86.3873V21.9648Z" fill="currentColor"/>
<path d="M1.33017 14.3417C1.93885 14.6852 3.73924 15.4533 5.51299 15.4533C7.39262 15.4533 8.05424 14.6329 8.05424 13.4681C8.05424 12.2511 7.2338 11.9073 5.80401 11.3518L4.71851 10.9282C1.67414 9.73776 0.747803 8.09705 0.747803 5.47724C0.747803 1.98449 3.55377 0 7.47187 0C8.87535 0 10.6225 0.132455 12.1315 0.741148L11.9194 4.36635C11.046 3.9164 9.53697 3.43983 8.10752 3.43983C6.62479 3.43983 5.72476 4.04853 5.72476 5.18637C5.72476 6.13885 6.20124 6.56217 7.84247 7.30299L10.0664 8.30871C11.7339 9.07582 13.1904 10.2403 13.1904 12.9922C13.1904 17.0407 10.2785 19.1048 5.96317 19.1048C3.73924 19.1048 1.96515 18.6279 1.03915 18.3903L1.33017 14.3417Z" fill="currentColor"/>
<path d="M21.5614 0.317871H15.9211V18.787H21.5614V0.317871Z" fill="currentColor"/>
<path d="M25.4551 0.317871H32.5764C38.0035 0.317871 41.0482 3.94274 41.0482 9.44661C41.0482 15.8497 37.6596 18.787 31.8089 18.787H25.4551V0.317871ZM30.432 15.241H31.5175C34.3771 15.241 35.8066 13.2039 35.8066 9.63164C35.8066 4.89522 33.5294 3.96936 30.8289 3.96936H30.432V15.241Z" fill="currentColor"/>
<path d="M48.4608 5.98015H48.3546V18.787H44.0129V0.317871H49.7847L54.6288 13.0448H54.6821V0.317871H59.0234V18.787H53.1997L48.4608 5.98015Z" fill="currentColor"/>
<path d="M80.0607 8.44126C77.8108 8.44126 75.9804 10.2121 75.9804 12.3886C75.9804 14.5658 77.8108 16.337 80.0607 16.337C82.3106 16.337 84.1413 14.5658 84.1413 12.3886C84.1413 10.2121 82.3106 8.44126 80.0607 8.44126ZM80.0607 19.3175C76.1665 19.3175 72.9983 16.2095 72.9983 12.3886C72.9983 8.56839 76.1665 5.46069 80.0607 5.46069C83.9555 5.46069 87.1234 8.56839 87.1234 12.3886C87.1234 16.2095 83.9555 19.3175 80.0607 19.3175Z" fill="currentColor"/>
<path d="M63.2703 18.8666H71.532V16.4138H69.2145V8.56503H72.0777V6.11261H69.2145V5.10389C69.2145 3.16899 70.3053 3.00591 71.7501 3.00591C72.2139 3.00591 72.6228 3.11441 73.0317 3.22357V0.525881C72.2412 0.416722 71.3958 0.280273 70.6053 0.280273C66.4878 0.280273 65.5878 2.65148 65.5878 4.69521V6.11261H63.2703V8.56503H65.5878V16.4138H63.2703V18.8666Z" fill="currentColor"/>
<path d="M88.4878 18.8666H95.5229V16.4139H93.887V11.7537C93.887 10.1186 94.6778 8.32015 96.6403 8.32015C98.1127 8.32015 98.8762 9.57348 98.8762 10.8817V16.4139H97.2407V18.8666H104.275V16.4139H102.503V10.7453C102.503 7.52941 101.331 5.73096 97.9496 5.73096C96.1225 5.73096 94.4866 6.63019 93.6136 8.26557H93.559V6.11268H88.4878V8.56509H90.2599V16.4139H88.4878V18.8666Z" fill="currentColor"/>
<path d="M122.812 18.8666H125.539V17.5041H125.594C126.329 18.5395 127.475 19.248 129.383 19.248C132.138 19.248 133.937 17.4223 133.937 15.1602C133.937 9.54652 126.384 12.1354 126.384 9.54652C126.384 8.34744 127.611 8.1837 128.348 8.1837C129.684 8.1837 130.692 8.83766 130.692 10.3366H133.556V6.11268H130.829V7.44788H130.774C129.929 6.13964 128.811 5.73096 127.338 5.73096C125.021 5.73096 122.758 6.98462 122.758 9.65535C122.758 15.3236 130.31 12.6529 130.31 15.3236C130.31 16.523 129.193 16.7956 128.401 16.7956C126.929 16.7956 125.675 15.9779 125.675 14.3701H122.812V18.8666Z" fill="currentColor"/>
<path d="M118.995 0.661865H113.597V3.11428H115.369V7.99281H115.314C114.714 6.76644 113.515 5.73076 111.361 5.73076C108.034 5.73076 105.635 7.99281 105.635 12.6803C105.635 16.1142 107.434 19.2478 111.143 19.2478C113.405 19.2478 114.524 18.5393 115.669 16.7408H115.723V18.8664H120.768V16.4137H118.995V0.661865ZM112.097 16.6589C110.543 16.6589 109.397 15.2419 109.397 12.4893C109.397 10.391 110.106 8.31995 112.424 8.31995C114.66 8.31995 115.587 10.2003 115.587 12.2989C115.587 14.9966 114.824 16.6589 112.097 16.6589Z" fill="currentColor"/>
</g>
<defs>
<clipPath id="clip0_88_10330">
<rect width="133.216" height="25" fill="white" transform="translate(0.747803)"/>
</clipPath>
</defs>
</svg>
